<mxfile host="app.diagrams.net" modified="2022-03-09T06:55:56.890Z" agent="5.0 (Windows NT 10.0; Win64; x64) AppleWebKit/537.36 (KHTML, like Gecko) Chrome/99.0.4844.51 Safari/537.36" etag="EGKWnizanC9Z8KNrhAwy" version="17.0.0" type="github" pages="2">
  <diagram id="kgpKYQtTHZ0yAKxKKP6v" name="single machine">
    <mxGraphModel dx="733" dy="446" grid="1" gridSize="10" guides="1" tooltips="1" connect="1" arrows="1" fold="1" page="1" pageScale="1" pageWidth="850" pageHeight="1100" math="0" shadow="0">
      <root>
        <mxCell id="0" />
        <mxCell id="1" parent="0" />
        <mxCell id="I2tjsi1wscWTukM1jKdL-1" value="&lt;br&gt;" style="ellipse;whiteSpace=wrap;html=1;aspect=fixed;" vertex="1" parent="1">
          <mxGeometry x="385" y="60" width="40" height="40" as="geometry" />
        </mxCell>
        <mxCell id="I2tjsi1wscWTukM1jKdL-2" value="1" style="ellipse;whiteSpace=wrap;html=1;aspect=fixed;" vertex="1" parent="1">
          <mxGeometry x="290" y="150" width="40" height="40" as="geometry" />
        </mxCell>
        <mxCell id="I2tjsi1wscWTukM1jKdL-3" value="2" style="ellipse;whiteSpace=wrap;html=1;aspect=fixed;" vertex="1" parent="1">
          <mxGeometry x="360" y="150" width="40" height="40" as="geometry" />
        </mxCell>
        <mxCell id="I2tjsi1wscWTukM1jKdL-4" value="3" style="ellipse;whiteSpace=wrap;html=1;aspect=fixed;" vertex="1" parent="1">
          <mxGeometry x="425" y="150" width="40" height="40" as="geometry" />
        </mxCell>
        <mxCell id="I2tjsi1wscWTukM1jKdL-5" value="4" style="ellipse;whiteSpace=wrap;html=1;aspect=fixed;" vertex="1" parent="1">
          <mxGeometry x="490" y="150" width="40" height="40" as="geometry" />
        </mxCell>
        <mxCell id="I2tjsi1wscWTukM1jKdL-7" value="" style="endArrow=classic;html=1;rounded=0;" edge="1" parent="1" target="I2tjsi1wscWTukM1jKdL-5">
          <mxGeometry width="50" height="50" relative="1" as="geometry">
            <mxPoint x="410" y="100" as="sourcePoint" />
            <mxPoint x="470" y="200" as="targetPoint" />
          </mxGeometry>
        </mxCell>
        <mxCell id="I2tjsi1wscWTukM1jKdL-8" value="" style="endArrow=classic;html=1;rounded=0;exitX=0.5;exitY=1;exitDx=0;exitDy=0;" edge="1" parent="1" source="I2tjsi1wscWTukM1jKdL-1" target="I2tjsi1wscWTukM1jKdL-4">
          <mxGeometry width="50" height="50" relative="1" as="geometry">
            <mxPoint x="400.0021356237311" y="100.00213562373106" as="sourcePoint" />
            <mxPoint x="475.49557440805154" y="163.0563120067095" as="targetPoint" />
          </mxGeometry>
        </mxCell>
        <mxCell id="I2tjsi1wscWTukM1jKdL-9" value="" style="endArrow=classic;html=1;rounded=0;exitX=0.5;exitY=1;exitDx=0;exitDy=0;entryX=0.5;entryY=0;entryDx=0;entryDy=0;" edge="1" parent="1" source="I2tjsi1wscWTukM1jKdL-1" target="I2tjsi1wscWTukM1jKdL-3">
          <mxGeometry width="50" height="50" relative="1" as="geometry">
            <mxPoint x="415" y="110" as="sourcePoint" />
            <mxPoint x="445.0772212328634" y="162.63513715751105" as="targetPoint" />
          </mxGeometry>
        </mxCell>
        <mxCell id="I2tjsi1wscWTukM1jKdL-10" value="" style="endArrow=classic;html=1;rounded=0;entryX=1;entryY=0;entryDx=0;entryDy=0;exitX=0.5;exitY=1;exitDx=0;exitDy=0;" edge="1" parent="1" source="I2tjsi1wscWTukM1jKdL-1" target="I2tjsi1wscWTukM1jKdL-2">
          <mxGeometry width="50" height="50" relative="1" as="geometry">
            <mxPoint x="410" y="100" as="sourcePoint" />
            <mxPoint x="455.0772212328634" y="172.63513715751105" as="targetPoint" />
          </mxGeometry>
        </mxCell>
        <mxCell id="I2tjsi1wscWTukM1jKdL-11" value="2" style="ellipse;whiteSpace=wrap;html=1;aspect=fixed;" vertex="1" parent="1">
          <mxGeometry x="260" y="240" width="40" height="40" as="geometry" />
        </mxCell>
        <mxCell id="I2tjsi1wscWTukM1jKdL-12" value="3" style="ellipse;whiteSpace=wrap;html=1;aspect=fixed;" vertex="1" parent="1">
          <mxGeometry x="325" y="240" width="40" height="40" as="geometry" />
        </mxCell>
        <mxCell id="I2tjsi1wscWTukM1jKdL-13" value="4" style="ellipse;whiteSpace=wrap;html=1;aspect=fixed;" vertex="1" parent="1">
          <mxGeometry x="390" y="240" width="40" height="40" as="geometry" />
        </mxCell>
        <mxCell id="I2tjsi1wscWTukM1jKdL-14" value="" style="endArrow=classic;html=1;rounded=0;" edge="1" parent="1" target="I2tjsi1wscWTukM1jKdL-13">
          <mxGeometry width="50" height="50" relative="1" as="geometry">
            <mxPoint x="310" y="190" as="sourcePoint" />
            <mxPoint x="370" y="290" as="targetPoint" />
          </mxGeometry>
        </mxCell>
        <mxCell id="I2tjsi1wscWTukM1jKdL-15" value="" style="endArrow=classic;html=1;rounded=0;exitX=0.5;exitY=1;exitDx=0;exitDy=0;" edge="1" parent="1" target="I2tjsi1wscWTukM1jKdL-12">
          <mxGeometry width="50" height="50" relative="1" as="geometry">
            <mxPoint x="305" y="190" as="sourcePoint" />
            <mxPoint x="375.49557440805154" y="253.0563120067095" as="targetPoint" />
          </mxGeometry>
        </mxCell>
        <mxCell id="I2tjsi1wscWTukM1jKdL-16" value="" style="endArrow=classic;html=1;rounded=0;exitX=0.5;exitY=1;exitDx=0;exitDy=0;entryX=0.5;entryY=0;entryDx=0;entryDy=0;" edge="1" parent="1" target="I2tjsi1wscWTukM1jKdL-11">
          <mxGeometry width="50" height="50" relative="1" as="geometry">
            <mxPoint x="305" y="190" as="sourcePoint" />
            <mxPoint x="345.0772212328634" y="252.63513715751105" as="targetPoint" />
          </mxGeometry>
        </mxCell>
        <mxCell id="I2tjsi1wscWTukM1jKdL-18" value="3" style="ellipse;whiteSpace=wrap;html=1;aspect=fixed;" vertex="1" parent="1">
          <mxGeometry x="305" y="330" width="40" height="40" as="geometry" />
        </mxCell>
        <mxCell id="I2tjsi1wscWTukM1jKdL-19" value="4" style="ellipse;whiteSpace=wrap;html=1;aspect=fixed;" vertex="1" parent="1">
          <mxGeometry x="370" y="330" width="40" height="40" as="geometry" />
        </mxCell>
        <mxCell id="I2tjsi1wscWTukM1jKdL-20" value="" style="endArrow=classic;html=1;rounded=0;" edge="1" parent="1" target="I2tjsi1wscWTukM1jKdL-19">
          <mxGeometry width="50" height="50" relative="1" as="geometry">
            <mxPoint x="290" y="280" as="sourcePoint" />
            <mxPoint x="350" y="380" as="targetPoint" />
          </mxGeometry>
        </mxCell>
        <mxCell id="I2tjsi1wscWTukM1jKdL-21" value="" style="endArrow=classic;html=1;rounded=0;exitX=0.5;exitY=1;exitDx=0;exitDy=0;" edge="1" parent="1" target="I2tjsi1wscWTukM1jKdL-18">
          <mxGeometry width="50" height="50" relative="1" as="geometry">
            <mxPoint x="285" y="280" as="sourcePoint" />
            <mxPoint x="355.49557440805154" y="343.0563120067095" as="targetPoint" />
          </mxGeometry>
        </mxCell>
        <mxCell id="I2tjsi1wscWTukM1jKdL-24" value="4" style="ellipse;whiteSpace=wrap;html=1;aspect=fixed;" vertex="1" parent="1">
          <mxGeometry x="325" y="410" width="40" height="40" as="geometry" />
        </mxCell>
        <mxCell id="I2tjsi1wscWTukM1jKdL-25" value="3" style="ellipse;whiteSpace=wrap;html=1;aspect=fixed;" vertex="1" parent="1">
          <mxGeometry x="410" y="410" width="40" height="40" as="geometry" />
        </mxCell>
        <mxCell id="I2tjsi1wscWTukM1jKdL-27" value="" style="endArrow=classic;html=1;rounded=0;exitX=1;exitY=1;exitDx=0;exitDy=0;" edge="1" parent="1" source="I2tjsi1wscWTukM1jKdL-19" target="I2tjsi1wscWTukM1jKdL-25">
          <mxGeometry width="50" height="50" relative="1" as="geometry">
            <mxPoint x="490" y="260" as="sourcePoint" />
            <mxPoint x="540" y="210" as="targetPoint" />
          </mxGeometry>
        </mxCell>
        <mxCell id="I2tjsi1wscWTukM1jKdL-30" value="" style="endArrow=classic;html=1;rounded=0;exitX=1;exitY=1;exitDx=0;exitDy=0;" edge="1" parent="1" source="I2tjsi1wscWTukM1jKdL-18" target="I2tjsi1wscWTukM1jKdL-24">
          <mxGeometry width="50" height="50" relative="1" as="geometry">
            <mxPoint x="414.14213562373106" y="374.14213562373106" as="sourcePoint" />
            <mxPoint x="432.8204184138226" y="421.3330878759389" as="targetPoint" />
          </mxGeometry>
        </mxCell>
        <mxCell id="I2tjsi1wscWTukM1jKdL-32" value="&lt;h1&gt;下界，上界&lt;/h1&gt;&lt;p&gt;松弛目标后，产生下界（理想中的最优解，可中断EDD规则）&lt;/p&gt;&lt;p&gt;求得一个可行解后，产生上界&lt;/p&gt;&lt;p&gt;不断地逼近下界：&lt;/p&gt;&lt;p&gt;若是相等就是解&lt;/p&gt;&lt;p&gt;若是超过上界，减枝&lt;/p&gt;" style="text;html=1;strokeColor=none;fillColor=none;spacing=5;spacingTop=-20;whiteSpace=wrap;overflow=hidden;rounded=0;" vertex="1" parent="1">
          <mxGeometry x="510" y="230" width="190" height="190" as="geometry" />
        </mxCell>
      </root>
    </mxGraphModel>
  </diagram>
  <diagram id="V0x1d_k5ns0gzX_nY9mS" name="shiffting bottleneck">
    <mxGraphModel dx="698" dy="425" grid="1" gridSize="10" guides="1" tooltips="1" connect="1" arrows="1" fold="1" page="1" pageScale="1" pageWidth="850" pageHeight="1100" math="0" shadow="0">
      <root>
        <mxCell id="F4Yf-gSViDyFcdyx71xd-0" />
        <mxCell id="F4Yf-gSViDyFcdyx71xd-1" parent="F4Yf-gSViDyFcdyx71xd-0" />
        <mxCell id="XZTAUB0_79ZyxVTHOUMx-0" value="&lt;font style=&quot;font-size: 18px&quot;&gt;1.选择瓶颈机器&lt;br&gt;2.该机器的最优解&lt;br&gt;3.已排序机器都再求一次最优解&lt;br&gt;4.直到所有的机器都排完&lt;/font&gt;" style="text;html=1;strokeColor=none;fillColor=none;align=left;verticalAlign=middle;whiteSpace=wrap;rounded=0;" vertex="1" parent="F4Yf-gSViDyFcdyx71xd-1">
          <mxGeometry x="320" y="70" width="270" height="120" as="geometry" />
        </mxCell>
        <mxCell id="XZTAUB0_79ZyxVTHOUMx-1" value="问题复杂度：NP难&lt;br&gt;单机排序子问题：NP难" style="text;html=1;strokeColor=none;fillColor=none;align=center;verticalAlign=middle;whiteSpace=wrap;rounded=0;fontSize=18;" vertex="1" parent="F4Yf-gSViDyFcdyx71xd-1">
          <mxGeometry x="315" y="230" width="220" height="30" as="geometry" />
        </mxCell>
        <mxCell id="i3p7xEOgIUcTqsu7qSDY-0" value="" style="ellipse;whiteSpace=wrap;html=1;aspect=fixed;fontSize=18;" vertex="1" parent="F4Yf-gSViDyFcdyx71xd-1">
          <mxGeometry x="130" y="420" width="50" height="50" as="geometry" />
        </mxCell>
        <mxCell id="i3p7xEOgIUcTqsu7qSDY-1" value="" style="ellipse;whiteSpace=wrap;html=1;aspect=fixed;fontSize=18;" vertex="1" parent="F4Yf-gSViDyFcdyx71xd-1">
          <mxGeometry x="580" y="420" width="50" height="50" as="geometry" />
        </mxCell>
        <mxCell id="i3p7xEOgIUcTqsu7qSDY-2" value="" style="ellipse;whiteSpace=wrap;html=1;aspect=fixed;fontSize=18;" vertex="1" parent="F4Yf-gSViDyFcdyx71xd-1">
          <mxGeometry x="240" y="340" width="30" height="30" as="geometry" />
        </mxCell>
        <mxCell id="i3p7xEOgIUcTqsu7qSDY-3" value="" style="ellipse;whiteSpace=wrap;html=1;aspect=fixed;fontSize=18;" vertex="1" parent="F4Yf-gSViDyFcdyx71xd-1">
          <mxGeometry x="320" y="340" width="30" height="30" as="geometry" />
        </mxCell>
        <mxCell id="i3p7xEOgIUcTqsu7qSDY-4" value="" style="ellipse;whiteSpace=wrap;html=1;aspect=fixed;fontSize=18;" vertex="1" parent="F4Yf-gSViDyFcdyx71xd-1">
          <mxGeometry x="480" y="340" width="30" height="30" as="geometry" />
        </mxCell>
        <mxCell id="i3p7xEOgIUcTqsu7qSDY-5" value="" style="ellipse;whiteSpace=wrap;html=1;aspect=fixed;fontSize=18;" vertex="1" parent="F4Yf-gSViDyFcdyx71xd-1">
          <mxGeometry x="410" y="340" width="30" height="30" as="geometry" />
        </mxCell>
        <mxCell id="i3p7xEOgIUcTqsu7qSDY-7" value="" style="endArrow=classic;html=1;rounded=0;fontSize=18;exitX=1;exitY=0.5;exitDx=0;exitDy=0;entryX=0;entryY=0.5;entryDx=0;entryDy=0;" edge="1" parent="F4Yf-gSViDyFcdyx71xd-1" source="i3p7xEOgIUcTqsu7qSDY-2" target="i3p7xEOgIUcTqsu7qSDY-3">
          <mxGeometry width="50" height="50" relative="1" as="geometry">
            <mxPoint x="420" y="410" as="sourcePoint" />
            <mxPoint x="310" y="370" as="targetPoint" />
          </mxGeometry>
        </mxCell>
        <mxCell id="i3p7xEOgIUcTqsu7qSDY-8" value="" style="endArrow=classic;html=1;rounded=0;fontSize=18;exitX=1;exitY=0.5;exitDx=0;exitDy=0;entryX=0;entryY=0.5;entryDx=0;entryDy=0;" edge="1" parent="F4Yf-gSViDyFcdyx71xd-1" source="i3p7xEOgIUcTqsu7qSDY-3" target="i3p7xEOgIUcTqsu7qSDY-5">
          <mxGeometry width="50" height="50" relative="1" as="geometry">
            <mxPoint x="280" y="365" as="sourcePoint" />
            <mxPoint x="330" y="365" as="targetPoint" />
          </mxGeometry>
        </mxCell>
        <mxCell id="i3p7xEOgIUcTqsu7qSDY-9" value="" style="endArrow=classic;html=1;rounded=0;fontSize=18;exitX=1;exitY=0.5;exitDx=0;exitDy=0;entryX=0;entryY=0.5;entryDx=0;entryDy=0;" edge="1" parent="F4Yf-gSViDyFcdyx71xd-1" source="i3p7xEOgIUcTqsu7qSDY-5" target="i3p7xEOgIUcTqsu7qSDY-4">
          <mxGeometry width="50" height="50" relative="1" as="geometry">
            <mxPoint x="290" y="375" as="sourcePoint" />
            <mxPoint x="340" y="375" as="targetPoint" />
          </mxGeometry>
        </mxCell>
        <mxCell id="i3p7xEOgIUcTqsu7qSDY-24" value="" style="ellipse;whiteSpace=wrap;html=1;aspect=fixed;fontSize=18;" vertex="1" parent="F4Yf-gSViDyFcdyx71xd-1">
          <mxGeometry x="240" y="410" width="30" height="30" as="geometry" />
        </mxCell>
        <mxCell id="i3p7xEOgIUcTqsu7qSDY-25" value="" style="ellipse;whiteSpace=wrap;html=1;aspect=fixed;fontSize=18;" vertex="1" parent="F4Yf-gSViDyFcdyx71xd-1">
          <mxGeometry x="320" y="410" width="30" height="30" as="geometry" />
        </mxCell>
        <mxCell id="i3p7xEOgIUcTqsu7qSDY-26" value="" style="ellipse;whiteSpace=wrap;html=1;aspect=fixed;fontSize=18;" vertex="1" parent="F4Yf-gSViDyFcdyx71xd-1">
          <mxGeometry x="480" y="410" width="30" height="30" as="geometry" />
        </mxCell>
        <mxCell id="i3p7xEOgIUcTqsu7qSDY-27" value="" style="ellipse;whiteSpace=wrap;html=1;aspect=fixed;fontSize=18;" vertex="1" parent="F4Yf-gSViDyFcdyx71xd-1">
          <mxGeometry x="410" y="410" width="30" height="30" as="geometry" />
        </mxCell>
        <mxCell id="i3p7xEOgIUcTqsu7qSDY-28" value="" style="endArrow=classic;html=1;rounded=0;fontSize=18;exitX=1;exitY=0.5;exitDx=0;exitDy=0;entryX=0;entryY=0.5;entryDx=0;entryDy=0;" edge="1" parent="F4Yf-gSViDyFcdyx71xd-1" source="i3p7xEOgIUcTqsu7qSDY-24" target="i3p7xEOgIUcTqsu7qSDY-25">
          <mxGeometry width="50" height="50" relative="1" as="geometry">
            <mxPoint x="420" y="480" as="sourcePoint" />
            <mxPoint x="310" y="440" as="targetPoint" />
          </mxGeometry>
        </mxCell>
        <mxCell id="i3p7xEOgIUcTqsu7qSDY-29" value="" style="endArrow=classic;html=1;rounded=0;fontSize=18;exitX=1;exitY=0.5;exitDx=0;exitDy=0;entryX=0;entryY=0.5;entryDx=0;entryDy=0;" edge="1" parent="F4Yf-gSViDyFcdyx71xd-1" source="i3p7xEOgIUcTqsu7qSDY-25" target="i3p7xEOgIUcTqsu7qSDY-27">
          <mxGeometry width="50" height="50" relative="1" as="geometry">
            <mxPoint x="280" y="435" as="sourcePoint" />
            <mxPoint x="330" y="435" as="targetPoint" />
          </mxGeometry>
        </mxCell>
        <mxCell id="i3p7xEOgIUcTqsu7qSDY-30" value="" style="endArrow=classic;html=1;rounded=0;fontSize=18;exitX=1;exitY=0.5;exitDx=0;exitDy=0;entryX=0;entryY=0.5;entryDx=0;entryDy=0;" edge="1" parent="F4Yf-gSViDyFcdyx71xd-1" source="i3p7xEOgIUcTqsu7qSDY-27" target="i3p7xEOgIUcTqsu7qSDY-26">
          <mxGeometry width="50" height="50" relative="1" as="geometry">
            <mxPoint x="290" y="445" as="sourcePoint" />
            <mxPoint x="340" y="445" as="targetPoint" />
          </mxGeometry>
        </mxCell>
        <mxCell id="i3p7xEOgIUcTqsu7qSDY-31" value="" style="ellipse;whiteSpace=wrap;html=1;aspect=fixed;fontSize=18;" vertex="1" parent="F4Yf-gSViDyFcdyx71xd-1">
          <mxGeometry x="240" y="470" width="30" height="30" as="geometry" />
        </mxCell>
        <mxCell id="i3p7xEOgIUcTqsu7qSDY-32" value="" style="ellipse;whiteSpace=wrap;html=1;aspect=fixed;fontSize=18;" vertex="1" parent="F4Yf-gSViDyFcdyx71xd-1">
          <mxGeometry x="320" y="470" width="30" height="30" as="geometry" />
        </mxCell>
        <mxCell id="i3p7xEOgIUcTqsu7qSDY-33" value="" style="ellipse;whiteSpace=wrap;html=1;aspect=fixed;fontSize=18;" vertex="1" parent="F4Yf-gSViDyFcdyx71xd-1">
          <mxGeometry x="480" y="470" width="30" height="30" as="geometry" />
        </mxCell>
        <mxCell id="i3p7xEOgIUcTqsu7qSDY-34" value="" style="ellipse;whiteSpace=wrap;html=1;aspect=fixed;fontSize=18;" vertex="1" parent="F4Yf-gSViDyFcdyx71xd-1">
          <mxGeometry x="410" y="470" width="30" height="30" as="geometry" />
        </mxCell>
        <mxCell id="i3p7xEOgIUcTqsu7qSDY-35" value="" style="endArrow=classic;html=1;rounded=0;fontSize=18;exitX=1;exitY=0.5;exitDx=0;exitDy=0;entryX=0;entryY=0.5;entryDx=0;entryDy=0;" edge="1" parent="F4Yf-gSViDyFcdyx71xd-1" source="i3p7xEOgIUcTqsu7qSDY-31" target="i3p7xEOgIUcTqsu7qSDY-32">
          <mxGeometry width="50" height="50" relative="1" as="geometry">
            <mxPoint x="420" y="540" as="sourcePoint" />
            <mxPoint x="310" y="500" as="targetPoint" />
          </mxGeometry>
        </mxCell>
        <mxCell id="i3p7xEOgIUcTqsu7qSDY-36" value="" style="endArrow=classic;html=1;rounded=0;fontSize=18;exitX=1;exitY=0.5;exitDx=0;exitDy=0;entryX=0;entryY=0.5;entryDx=0;entryDy=0;" edge="1" parent="F4Yf-gSViDyFcdyx71xd-1" source="i3p7xEOgIUcTqsu7qSDY-32" target="i3p7xEOgIUcTqsu7qSDY-34">
          <mxGeometry width="50" height="50" relative="1" as="geometry">
            <mxPoint x="280" y="495" as="sourcePoint" />
            <mxPoint x="330" y="495" as="targetPoint" />
          </mxGeometry>
        </mxCell>
        <mxCell id="i3p7xEOgIUcTqsu7qSDY-37" value="" style="endArrow=classic;html=1;rounded=0;fontSize=18;exitX=1;exitY=0.5;exitDx=0;exitDy=0;entryX=0;entryY=0.5;entryDx=0;entryDy=0;" edge="1" parent="F4Yf-gSViDyFcdyx71xd-1" source="i3p7xEOgIUcTqsu7qSDY-34" target="i3p7xEOgIUcTqsu7qSDY-33">
          <mxGeometry width="50" height="50" relative="1" as="geometry">
            <mxPoint x="290" y="505" as="sourcePoint" />
            <mxPoint x="340" y="505" as="targetPoint" />
          </mxGeometry>
        </mxCell>
        <mxCell id="i3p7xEOgIUcTqsu7qSDY-38" value="" style="endArrow=classic;html=1;rounded=0;fontSize=18;exitX=1;exitY=0;exitDx=0;exitDy=0;entryX=0;entryY=1;entryDx=0;entryDy=0;" edge="1" parent="F4Yf-gSViDyFcdyx71xd-1" source="i3p7xEOgIUcTqsu7qSDY-0" target="i3p7xEOgIUcTqsu7qSDY-2">
          <mxGeometry width="50" height="50" relative="1" as="geometry">
            <mxPoint x="420" y="320" as="sourcePoint" />
            <mxPoint x="470" y="270" as="targetPoint" />
          </mxGeometry>
        </mxCell>
        <mxCell id="i3p7xEOgIUcTqsu7qSDY-39" value="" style="endArrow=classic;html=1;rounded=0;fontSize=18;exitX=1;exitY=0.5;exitDx=0;exitDy=0;" edge="1" parent="F4Yf-gSViDyFcdyx71xd-1" source="i3p7xEOgIUcTqsu7qSDY-4" target="i3p7xEOgIUcTqsu7qSDY-1">
          <mxGeometry width="50" height="50" relative="1" as="geometry">
            <mxPoint x="182.67766952966713" y="437.3223304703329" as="sourcePoint" />
            <mxPoint x="254.39339828220193" y="375.6066017177982" as="targetPoint" />
          </mxGeometry>
        </mxCell>
        <mxCell id="i3p7xEOgIUcTqsu7qSDY-40" value="" style="endArrow=classic;html=1;rounded=0;fontSize=18;" edge="1" parent="F4Yf-gSViDyFcdyx71xd-1" source="i3p7xEOgIUcTqsu7qSDY-26">
          <mxGeometry width="50" height="50" relative="1" as="geometry">
            <mxPoint x="520.0000000000075" y="365" as="sourcePoint" />
            <mxPoint x="580" y="438" as="targetPoint" />
          </mxGeometry>
        </mxCell>
        <mxCell id="i3p7xEOgIUcTqsu7qSDY-41" value="" style="endArrow=classic;html=1;rounded=0;fontSize=18;exitX=1;exitY=0.5;exitDx=0;exitDy=0;entryX=0;entryY=0.5;entryDx=0;entryDy=0;" edge="1" parent="F4Yf-gSViDyFcdyx71xd-1" source="i3p7xEOgIUcTqsu7qSDY-0" target="i3p7xEOgIUcTqsu7qSDY-24">
          <mxGeometry width="50" height="50" relative="1" as="geometry">
            <mxPoint x="530.0000000000075" y="375" as="sourcePoint" />
            <mxPoint x="606.8704426440529" y="447.7860768539492" as="targetPoint" />
          </mxGeometry>
        </mxCell>
        <mxCell id="i3p7xEOgIUcTqsu7qSDY-42" value="" style="endArrow=classic;html=1;rounded=0;fontSize=18;exitX=1;exitY=1;exitDx=0;exitDy=0;entryX=0;entryY=0.5;entryDx=0;entryDy=0;" edge="1" parent="F4Yf-gSViDyFcdyx71xd-1" source="i3p7xEOgIUcTqsu7qSDY-0" target="i3p7xEOgIUcTqsu7qSDY-31">
          <mxGeometry width="50" height="50" relative="1" as="geometry">
            <mxPoint x="540.0000000000075" y="385" as="sourcePoint" />
            <mxPoint x="616.8704426440529" y="457.7860768539492" as="targetPoint" />
          </mxGeometry>
        </mxCell>
        <mxCell id="i3p7xEOgIUcTqsu7qSDY-43" value="" style="endArrow=classic;html=1;rounded=0;fontSize=18;exitX=1;exitY=0.5;exitDx=0;exitDy=0;entryX=0.054;entryY=0.706;entryDx=0;entryDy=0;entryPerimeter=0;" edge="1" parent="F4Yf-gSViDyFcdyx71xd-1" source="i3p7xEOgIUcTqsu7qSDY-33" target="i3p7xEOgIUcTqsu7qSDY-1">
          <mxGeometry width="50" height="50" relative="1" as="geometry">
            <mxPoint x="550.0000000000075" y="395" as="sourcePoint" />
            <mxPoint x="626.8704426440529" y="467.7860768539492" as="targetPoint" />
          </mxGeometry>
        </mxCell>
      </root>
    </mxGraphModel>
  </diagram>
</mxfile>
